<svg xmlns="http://www.w3.org/2000/svg" viewBox="0 0 82.52 82.52"><defs><style>.cls-1{fill:#0e568c;}.cls-2{fill:#287eb2;}</style></defs><title>Asset 1</title><g id="Layer_2" data-name="Layer 2"><g id="Layer_1-2" data-name="Layer 1"><path class="cls-1" d="M21.57,48.44h2a1.6,1.6,0,0,1,1.13.38,1,1,0,0,1,.29.73v0a1,1,0,0,1-.56.92,1.06,1.06,0,0,1,.8,1.06h0c0,.79-.64,1.18-1.61,1.18H21.57Zm2.48,1.27c0-.28-.22-.44-.62-.44H22.5v.91h.87c.42,0,.68-.13.68-.45ZM23.59,51H22.5v.94h1.12c.42,0,.67-.14.67-.46h0C24.29,51.15,24.08,51,23.59,51Z"/><path class="cls-1" d="M25.82,50.61v0A2.32,2.32,0,0,1,29.76,49l-.6.7a1.59,1.59,0,0,0-1.1-.49,1.28,1.28,0,0,0-1.25,1.34h0A1.28,1.28,0,0,0,28.06,52a1.54,1.54,0,0,0,1.13-.51l.61.61a2.23,2.23,0,0,1-1.77.77A2.17,2.17,0,0,1,25.82,50.61Z"/><path class="cls-1" d="M32.21,50.61v0a2.18,2.18,0,0,1,2.24-2.22,2.24,2.24,0,0,1,1.7.66l-.6.7a1.61,1.61,0,0,0-1.1-.49,1.27,1.27,0,0,0-1.25,1.34h0A1.28,1.28,0,0,0,34.45,52a1.55,1.55,0,0,0,1.13-.51l.6.61a2.2,2.2,0,0,1-1.76.77A2.17,2.17,0,0,1,32.21,50.61Z"/><path class="cls-1" d="M36.63,50.61v0a2.29,2.29,0,0,1,4.57,0h0a2.23,2.23,0,0,1-2.29,2.23A2.2,2.2,0,0,1,36.63,50.61Zm3.58,0v0a1.31,1.31,0,0,0-1.3-1.35,1.29,1.29,0,0,0-1.3,1.34h0A1.32,1.32,0,0,0,38.92,52,1.29,1.29,0,0,0,40.21,50.61Z"/><path class="cls-1" d="M41.4,48.44h1l1.13,3,1.12-3h1L44,52.78h-.83Z"/><path class="cls-1" d="M46.42,48.44h.95v4.3h-.95Z"/><path class="cls-1" d="M48.45,48.44h1.68a2.14,2.14,0,0,1,2.28,2.14h0a2.15,2.15,0,0,1-2.28,2.15H48.45Zm.94.86v2.59h.74a1.22,1.22,0,0,0,1.29-1.28v0a1.23,1.23,0,0,0-1.29-1.29Z"/><path class="cls-1" d="M53.05,50.39h1.89v.9H53.05Z"/><path class="cls-1" d="M56.16,49.37l-.75.18-.2-.77,1.24-.37h.64v4.33h-.93Z"/><path class="cls-1" d="M60.41,51a1.27,1.27,0,0,1-.87.3A1.36,1.36,0,0,1,58,49.89v0a1.52,1.52,0,0,1,1.64-1.5,1.56,1.56,0,0,1,1.24.47,2.1,2.1,0,0,1,.51,1.62h0c0,1.4-.66,2.35-1.88,2.35a2.11,2.11,0,0,1-1.42-.51l.5-.72a1.42,1.42,0,0,0,.94.37C60.19,52,60.38,51.35,60.41,51Zm0-1.13h0a.67.67,0,0,0-.75-.66.64.64,0,0,0-.73.65h0a.66.66,0,0,0,.75.65A.65.65,0,0,0,60.43,49.85Z"/><path class="cls-2" d="M11.07,61.7l.53-.47a2.34,2.34,0,0,0,1.89,1,1.3,1.3,0,0,0,1.41-1.26v0c0-.8-.75-1.24-1.81-1.24h-.41l-.15-.43,2-2.3H11.41v-.65h4.13v.53l-2,2.25c1.12.09,2.13.64,2.13,1.82h0a2,2,0,0,1-2.16,2A3,3,0,0,1,11.07,61.7Z"/><path class="cls-2" d="M17.18,56.29h2.24a3.21,3.21,0,0,1,3.43,3.2v0a3.23,3.23,0,0,1-3.43,3.23H17.18Zm.73.67v5.11h1.51a2.51,2.51,0,0,0,2.68-2.54v0A2.51,2.51,0,0,0,19.42,57Z"/><path class="cls-2" d="M27.16,56.29h2.42c1.46,0,2.42.77,2.42,2v0c0,1.39-1.17,2.11-2.54,2.11H27.89v2.28h-.73Zm2.33,3.51c1.07,0,1.77-.57,1.77-1.42v0c0-.92-.69-1.4-1.74-1.4H27.89V59.8Z"/><path class="cls-2" d="M33.33,56.29H36.1a2.53,2.53,0,0,1,1.84.64,1.8,1.8,0,0,1,.5,1.27v0a1.89,1.89,0,0,1-1.76,1.88l2,2.64h-.9L35.9,60.23H34.06v2.51h-.73ZM36,59.58c1,0,1.66-.5,1.66-1.33v0c0-.79-.61-1.27-1.65-1.27h-2v2.62Z"/><path class="cls-2" d="M40.06,56.29h.73v6.45h-.73Z"/><path class="cls-2" d="M42.68,56.29h.68l4.07,5.17V56.29h.71v6.45h-.58l-4.17-5.29v5.29h-.71Z"/><path class="cls-2" d="M51.65,57H49.47v-.67h5.08V57H52.38v5.78h-.73Z"/><path class="cls-2" d="M56,56.29h.73v6.45H56Z"/><path class="cls-2" d="M58.57,56.29h.68l4.07,5.17V56.29H64v6.45h-.58l-4.17-5.29v5.29h-.71Z"/><path class="cls-2" d="M65.57,59.53v0a3.24,3.24,0,0,1,3.24-3.34,3.43,3.43,0,0,1,2.41.86l-.48.56a2.7,2.7,0,0,0-2-.74,2.52,2.52,0,0,0-2.45,2.64v0a2.49,2.49,0,0,0,2.55,2.69,3,3,0,0,0,1.86-.65V60h-2v-.66h2.67v2.57a3.91,3.91,0,0,1-2.6,1A3.17,3.17,0,0,1,65.57,59.53Z"/><path class="cls-2" d="M24.57,68.76v0A3.24,3.24,0,0,1,27.8,65.4a3.39,3.39,0,0,1,2.41.86l-.47.55a2.76,2.76,0,0,0-2-.74,2.53,2.53,0,0,0-2.46,2.65v0a2.49,2.49,0,0,0,2.56,2.68,3,3,0,0,0,1.86-.64V69.17h-2v-.65h2.66v2.57a3.93,3.93,0,0,1-2.59,1A3.16,3.16,0,0,1,24.57,68.76Z"/><path class="cls-2" d="M32.09,65.51h2.77a2.55,2.55,0,0,1,1.84.65,1.78,1.78,0,0,1,.49,1.27v0a1.89,1.89,0,0,1-1.75,1.88l2,2.64h-.89l-1.87-2.51H32.81V72h-.72ZM34.8,68.8c1,0,1.66-.49,1.66-1.32v0c0-.8-.61-1.28-1.65-1.28h-2V68.8Z"/><path class="cls-2" d="M38.47,68.76v0a3.27,3.27,0,0,1,3.3-3.34,3.23,3.23,0,0,1,3.28,3.32v0a3.29,3.29,0,1,1-6.58,0Zm5.83,0v0a2.57,2.57,0,0,0-2.55-2.67,2.53,2.53,0,0,0-2.52,2.65v0a2.57,2.57,0,0,0,2.54,2.66A2.53,2.53,0,0,0,44.3,68.76Z"/><path class="cls-2" d="M46.5,69.26V65.51h.73v3.71c0,1.39.73,2.17,2,2.17s1.94-.72,1.94-2.13V65.51h.73v3.7a2.69,2.69,0,1,1-5.37.05Z"/><path class="cls-2" d="M53.6,65.51H56c1.45,0,2.41.78,2.41,2v0c0,1.39-1.16,2.11-2.53,2.11H54.33V72H53.6ZM55.92,69c1.07,0,1.77-.57,1.77-1.42h0c0-.93-.69-1.41-1.73-1.41H54.33V69Z"/><rect class="cls-1" x="36.61" y="0.65" width="1.3" height="10.86"/><rect class="cls-1" x="44.2" y="0.65" width="1.3" height="10.5"/><rect class="cls-1" x="33.79" y="16.2" width="14.53" height="1.3"/><path class="cls-1" d="M41.26,0A41.31,41.31,0,0,0,0,41.26v.65H48.32c3.13,0,4.55-1.74,4.55-3.36s-1.42-3.36-4.55-3.36H33.79C31.84,35.19,31,34,31,33a1.91,1.91,0,0,1,.64-1.42,3.24,3.24,0,0,1,2.2-.7h7.92V24.36L49,17.12V10.86H33.14v6.26l7.27,7.24v5.19H33.79a4.51,4.51,0,0,0-3.06,1A3.15,3.15,0,0,0,29.65,33c0,1.75,1.42,3.52,4.14,3.52H48.32c2.23,0,3.25,1.07,3.25,2.06s-1,2.06-3.25,2.06h-47a39.93,39.93,0,1,1,.31,5.69H.31A41.26,41.26,0,1,0,41.26,0ZM34.44,16.58V12.16H47.67v4.42l-6.61,6.59Z"/></g></g></svg>