<svg xmlns="http://www.w3.org/2000/svg" viewBox="0 0 99.84 39.17"><defs><style>.cls-1{fill:#0e568c;}.cls-2{fill:#287eb2;}</style></defs><title>Asset 2</title><g id="Layer_2" data-name="Layer 2"><g id="Layer_1-2" data-name="Layer 1"><path class="cls-1" d="M37.82,7.3H40a1.64,1.64,0,0,1,1.21.41,1,1,0,0,1,.32.78h0a1.07,1.07,0,0,1-.61,1,1.14,1.14,0,0,1,.87,1.14h0c0,.84-.69,1.27-1.73,1.27h-2.2Zm2.66,1.36c0-.3-.24-.47-.67-.47h-1v1h.94c.44,0,.73-.14.73-.48ZM40,10H38.81v1H40c.45,0,.72-.16.72-.51h0C40.74,10.2,40.5,10,40,10Z"/><path class="cls-1" d="M42.38,9.62h0a2.35,2.35,0,0,1,2.41-2.39,2.39,2.39,0,0,1,1.82.71L46,8.68a1.7,1.7,0,0,0-1.19-.53,1.37,1.37,0,0,0-1.34,1.44v0a1.37,1.37,0,0,0,1.34,1.45A1.67,1.67,0,0,0,46,10.52l.64.65a2.43,2.43,0,0,1-4.26-1.55Z"/><path class="cls-1" d="M49.24,9.62h0a2.34,2.34,0,0,1,2.4-2.39,2.41,2.41,0,0,1,1.83.71l-.65.75a1.69,1.69,0,0,0-1.18-.53A1.37,1.37,0,0,0,50.3,9.59v0a1.37,1.37,0,0,0,1.34,1.45,1.65,1.65,0,0,0,1.21-.54l.65.65a2.37,2.37,0,0,1-1.9.83A2.33,2.33,0,0,1,49.24,9.62Z"/><path class="cls-1" d="M54,9.62h0a2.46,2.46,0,0,1,4.91,0v0A2.4,2.4,0,0,1,56.42,12,2.37,2.37,0,0,1,54,9.62Zm3.84,0h0a1.41,1.41,0,0,0-1.4-1.46A1.38,1.38,0,0,0,55,9.59v0a1.4,1.4,0,0,0,1.4,1.45A1.38,1.38,0,0,0,57.82,9.62Z"/><path class="cls-1" d="M59.1,7.3h1.12l1.21,3.25L62.64,7.3h1.09L61.87,12H61Z"/><path class="cls-1" d="M64.49,7.3h1v4.62h-1Z"/><path class="cls-1" d="M66.67,7.3h1.8a2.29,2.29,0,0,1,2.45,2.29v0a2.31,2.31,0,0,1-2.45,2.31h-1.8Zm1,.91V11h.79a1.31,1.31,0,0,0,1.39-1.38h0a1.33,1.33,0,0,0-1.39-1.4Z"/><path class="cls-1" d="M71.61,9.39h2v1h-2Z"/><path class="cls-1" d="M75,8.29l-.81.2-.21-.83,1.33-.4H76v4.66H75Z"/><path class="cls-1" d="M79.51,10a1.38,1.38,0,0,1-.93.32,1.46,1.46,0,0,1-1.65-1.49v0a1.62,1.62,0,0,1,1.76-1.61,1.66,1.66,0,0,1,1.33.5,2.29,2.29,0,0,1,.55,1.74h0c0,1.5-.71,2.53-2,2.53A2.26,2.26,0,0,1,77,11.45l.54-.77a1.48,1.48,0,0,0,1,.39C79.28,11.07,79.47,10.42,79.51,10Zm0-1.21v0a.72.72,0,0,0-.81-.7.69.69,0,0,0-.78.7h0c0,.41.3.69.8.69A.7.7,0,0,0,79.53,8.81Z"/><path class="cls-2" d="M26.55,21.53l.56-.51a2.51,2.51,0,0,0,2,1,1.38,1.38,0,0,0,1.51-1.34v0c0-.86-.8-1.34-1.94-1.34h-.44l-.16-.47,2.19-2.46H26.91v-.7h4.43v.57l-2.18,2.42c1.21.1,2.29.68,2.29,1.95v0a2.15,2.15,0,0,1-2.32,2.08A3.13,3.13,0,0,1,26.55,21.53Z"/><path class="cls-2" d="M33.1,15.72h2.41a3.45,3.45,0,0,1,3.68,3.44v0a3.47,3.47,0,0,1-3.68,3.47H33.1Zm.78.72v5.48h1.63a2.68,2.68,0,0,0,2.87-2.72v0a2.7,2.7,0,0,0-2.87-2.74Z"/><path class="cls-2" d="M43.82,15.72h2.59c1.57,0,2.6.83,2.6,2.19v0c0,1.5-1.25,2.27-2.73,2.27H44.6v2.45h-.78Zm2.49,3.77c1.15,0,1.9-.62,1.9-1.53v0c0-1-.74-1.5-1.86-1.5H44.6v3Z"/><path class="cls-2" d="M50.44,15.72h3a2.69,2.69,0,0,1,2,.69,1.91,1.91,0,0,1,.54,1.37v0a2,2,0,0,1-1.88,2l2.13,2.84h-1l-2-2.7h-2v2.7h-.78Zm2.91,3.53c1,0,1.78-.53,1.78-1.42v0c0-.86-.66-1.37-1.77-1.37H51.22v2.81Z"/><path class="cls-2" d="M57.67,15.72h.78v6.93h-.78Z"/><path class="cls-2" d="M60.48,15.72h.73l4.37,5.55V15.72h.76v6.93h-.63L61.24,17v5.69h-.76Z"/><path class="cls-2" d="M70.1,16.44H67.77v-.72h5.45v.72H70.89v6.21H70.1Z"/><path class="cls-2" d="M74.72,15.72h.78v6.93h-.78Z"/><path class="cls-2" d="M77.53,15.72h.74l4.36,5.55V15.72h.76v6.93h-.62L78.29,17v5.69h-.76Z"/><path class="cls-2" d="M85.05,19.2v0a3.48,3.48,0,0,1,3.47-3.58,3.63,3.63,0,0,1,2.59.92l-.51.59a2.94,2.94,0,0,0-2.1-.79,2.71,2.71,0,0,0-2.64,2.84v0a2.68,2.68,0,0,0,2.74,2.88,3.27,3.27,0,0,0,2-.69V19.65H88.5v-.71h2.86v2.77a4.25,4.25,0,0,1-2.79,1.05A3.4,3.4,0,0,1,85.05,19.2Z"/><path class="cls-2" d="M41,29.11v0a3.48,3.48,0,0,1,3.48-3.59,3.67,3.67,0,0,1,2.58.92l-.51.6a2.9,2.9,0,0,0-2.1-.8,2.71,2.71,0,0,0-2.64,2.85v0A2.68,2.68,0,0,0,44.58,32a3.21,3.21,0,0,0,2-.7V29.55h-2.1v-.7h2.86v2.76a4.25,4.25,0,0,1-2.78,1.06A3.4,3.4,0,0,1,41,29.11Z"/><path class="cls-2" d="M49.1,25.62h3a2.75,2.75,0,0,1,2,.69,1.93,1.93,0,0,1,.54,1.37v0a2,2,0,0,1-1.88,2l2.12,2.83h-1l-2-2.69h-2v2.69H49.1ZM52,29.15c1,0,1.78-.53,1.78-1.42v0c0-.85-.65-1.37-1.77-1.37H49.88v2.81Z"/><path class="cls-2" d="M56,29.11v0a3.53,3.53,0,1,1,7.06,0v0a3.53,3.53,0,1,1-7.06,0Zm6.25,0v0a2.72,2.72,0,1,0-5.44,0v0A2.76,2.76,0,0,0,59.5,32,2.72,2.72,0,0,0,62.21,29.11Z"/><path class="cls-2" d="M64.57,29.65v-4h.79v4c0,1.49.79,2.34,2.11,2.34s2.09-.78,2.09-2.29v-4h.78v4a2.89,2.89,0,1,1-5.77.06Z"/><path class="cls-2" d="M72.2,25.62h2.59c1.57,0,2.6.83,2.6,2.2v0c0,1.49-1.25,2.27-2.73,2.27H73v2.44H72.2Zm2.49,3.77c1.15,0,1.9-.61,1.9-1.52v0c0-1-.74-1.51-1.86-1.51H73v3.05Z"/><path class="cls-1" d="M99.84,39.17H10.3a3.16,3.16,0,1,1,0-6.29H22.7c1.9,0,2.77-.91,2.77-1.76s-.87-1.76-2.77-1.76H10.3c-2.32,0-3.54-1.51-3.54-3a2.73,2.73,0,0,1,.92-2,3.89,3.89,0,0,1,2.62-.88h5.64V19L9.75,12.83V7.49h13.5v5.34L17.05,19v5.54H10.3c-1.68,0-2.43.91-2.43,1.81s.76,1.89,2.43,1.89H22.7c2.67,0,3.88,1.49,3.88,2.87S25.37,34,22.7,34H10.3A2.1,2.1,0,0,0,8,36.06a2.06,2.06,0,0,0,2.32,2H98.73V1.11H1.11v37H4.53v1.11H0V0H99.84Zm-89-26.8L16.5,18l5.64-5.63V8.6H10.86Z"/><rect class="cls-1" x="12.71" y="0.56" width="1.11" height="7.49"/><rect class="cls-1" x="19.18" y="0.56" width="1.11" height="7.19"/><rect class="cls-1" x="10.3" y="12.05" width="12.4" height="1.11"/></g></g></svg>